<svg xmlns="http://www.w3.org/2000/svg" width="512" height="512"><g data-name="Filled outline"><path d="M488 105.94v132.92a80 80 0 01-23.43 56.57L295.43 464.57A80 80 0 01238.86 488H105.94A81.944 81.944 0 0124 406.06V273.14a80 80 0 0123.43-56.57L216.57 47.43A80 80 0 01273.14 24h132.92A81.944 81.944 0 01488 105.94z" fill="#ffb531"/><path d="M488 105.94v132.92a80 80 0 01-23.43 56.57L295.43 464.57A80 80 0 01238.86 488H105.94A81.944 81.944 0 0124 406.06v-30.24C172.81 319.95 316.76 212.15 400.95 24h5.11A81.944 81.944 0 01488 105.94z" fill="#fcac1f"/><path d="M408 136v89.61a32.018 32.018 0 01-9.37 22.63L248.24 398.63a32.036 32.036 0 01-22.63 9.37H136a31.784 31.784 0 01-16.25-4.43 32.133 32.133 0 01-11.32-11.32A31.784 31.784 0 01104 376v-89.61a32.018 32.018 0 019.37-22.63l150.39-150.39a32.036 32.036 0 0122.63-9.37H376a31.784 31.784 0 0116.25 4.43 32.133 32.133 0 0111.32 11.32A31.784 31.784 0 01408 136z" fill="#f98500"/><path d="M407.48 130.27A31.9 31.9 0 00384 120h-89.61a32.036 32.036 0 00-22.63 9.37L121.37 279.76a32.018 32.018 0 00-9.37 22.63V392a31 31 0 00.52 5.73 31.266 31.266 0 01-4.09-5.48A31.784 31.784 0 01104 376v-89.61a32.018 32.018 0 019.37-22.63l150.39-150.39a32.036 32.036 0 0122.63-9.37H376a31.784 31.784 0 0116.25 4.43 32.133 32.133 0 0111.32 11.32 31.372 31.372 0 013.91 10.52z" fill="#f77c00"/><path d="M365.373 404h-14.059L245.657 298.343l-11.314 11.314L340 415.313v14.06a16 16 0 004.686 11.313L396 492l32-32-51.314-51.314A16 16 0 00365.373 404zM150.627 112h14.059l101.657 101.657 11.314-11.314L176 100.686V86.627a16 16 0 00-4.686-11.313L120 24 88 56l51.314 51.314A16 16 0 00150.627 112zM112 150.627a16 16 0 00-4.686-11.313L56 88l-32 32 51.314 51.314A16 16 0 0086.627 176h14.059l101.657 101.657 11.314-11.314L112 164.686zM440.686 344.686A16 16 0 00429.373 340h-14.059L309.657 234.343l-11.314 11.314L404 351.313v14.06a16 16 0 004.686 11.313L460 428l32-32z" fill="#348fd9"/><path d="M497.657 390.343l-51.314-51.314a23.913 23.913 0 00-8.548-5.51l32.432-32.432A87.426 87.426 0 00496 238.86V105.94A89.941 89.941 0 00406.06 16H273.14a87.428 87.428 0 00-62.227 25.772l-16.57 16.571 11.314 11.314 16.57-16.57A71.525 71.525 0 01273.14 32h132.92A73.945 73.945 0 01480 105.94v132.92a71.525 71.525 0 01-21.087 50.912L416.686 332h-9.372l-40.568-40.568 37.539-37.539A39.746 39.746 0 00416 225.608V136a40.045 40.045 0 00-40-40h-89.608a39.737 39.737 0 00-28.284 11.715l-37.54 37.539L184 108.686V86.627a23.846 23.846 0 00-7.03-16.971l-51.313-51.313a8 8 0 00-11.314 0l-32 32a8 8 0 000 11.314l51.314 51.314a24.19 24.19 0 003.3 2.756l-21.232 21.232a24.266 24.266 0 00-2.757-3.3L61.657 82.343a8 8 0 00-11.314 0l-32 32a8 8 0 000 11.314l51.314 51.314a24.19 24.19 0 003.3 2.756l-31.184 31.186A87.426 87.426 0 0016 273.14v132.92A89.941 89.941 0 00105.94 496h132.92a87.428 87.428 0 0062.227-25.772l16.57-16.571-11.314-11.314-16.57 16.57A71.525 71.525 0 01238.86 480H105.94A73.945 73.945 0 0132 406.06V273.14a71.525 71.525 0 0121.087-50.912L91.314 184h17.372l36.568 36.568-37.539 37.539A39.746 39.746 0 0096 286.392V376a40.045 40.045 0 0040 40h89.608a39.737 39.737 0 0028.284-11.715l37.54-37.539L332 407.314v22.059a23.846 23.846 0 007.03 16.971l51.313 51.313a8 8 0 0011.314 0l32-32a8 8 0 000-11.314l-51.314-51.314a23.926 23.926 0 00-8.548-5.51l23.724-23.719a23.928 23.928 0 005.511 8.549l51.313 51.313a8 8 0 0011.314 0l32-32a8 8 0 000-11.319zM392.971 242.579l-37.539 37.539L335.314 260 400 195.314v30.294a23.847 23.847 0 01-7.029 16.971zm-123.55-123.55A23.843 23.843 0 01286.392 112h30.294L252 176.686l-20.118-20.118zM99.313 56L120 35.313l45.657 45.658A7.944 7.944 0 01168 86.627V104h-17.373a7.946 7.946 0 01-5.657-2.344zM104 168H86.627a7.946 7.946 0 01-5.657-2.344L35.313 120 56 99.313l45.657 45.658a7.944 7.944 0 012.343 5.656zm16 4.686v-17.372L155.314 120h17.372l36.568 36.568-52.686 52.686zm-.971 96.735l37.539-37.539 45.775 45.775 11.314-11.314L199.314 252l42.343-42.343-11.314-11.314L188 240.686l-20.118-20.118 52.686-52.686 45.775 45.775 11.314-11.314L263.314 188l76-76H376a23.858 23.858 0 0110.341 2.345l-272 272A23.861 23.861 0 01112 376v-36.686l61.657-61.657-11.314-11.314L112 316.686v-30.294a23.847 23.847 0 017.029-16.971zm123.55 123.55A23.843 23.843 0 01225.608 400h-30.294l50.343-50.343-11.314-11.314L172.686 400H136a23.858 23.858 0 01-10.341-2.345l272-272A23.861 23.861 0 01400 136v36.686l-76 76-14.343-14.343-11.314 11.314 45.775 45.775-52.686 52.686L271.314 324l42.593-42.593-11.314-11.314L260 312.686l-14.343-14.343-11.314 11.314 45.775 45.775zm112.853-90.225L396 343.314v9.372L352.686 396h-9.372l-40.568-40.568zM416.687 460L396 480.687l-45.657-45.658a7.944 7.944 0 01-2.343-5.656V412h17.373a7.946 7.946 0 015.657 2.344zM460 416.687l-45.657-45.658a7.944 7.944 0 01-2.343-5.656V348h17.373a7.946 7.946 0 015.657 2.344L480.687 396z"/><circle cx="232" cy="88" r="16"/><circle cx="432" cy="80" r="16"/><circle cx="424" cy="280" r="16"/><circle cx="88" cy="232" r="16"/><circle cx="280" cy="424" r="16"/><circle cx="80" cy="432" r="16"/></g></svg>