<svg height="512" viewBox="0 0 64 64" width="512" xmlns="http://www.w3.org/2000/svg"><path d="M57 9H7c2.209 0 4 4.029 4 9s-1.791 9-4 9h50c2.209 0 4-4.029 4-9s-1.791-9-4-9z" fill="#5e6a45"/><path d="M17 9v6.5c0 3.59 2.6 6.5 5.806 6.5h18.387C44.4 22 47 19.09 47 15.5V9z" fill="#515c3c"/><path d="M13 27h38v32H13z" fill="#214369"/><path d="M18 28h28v15H18z" fill="#1e3e61"/><path d="M13 27h38v2H13z" fill="#1e3e61"/><ellipse cx="7" cy="18" fill="#515c3c" rx="4" ry="9"/><path d="M59.121 10.38C59.67 11.92 60 13.872 60 16c0 4.971-1.791 9-4 9H9.512c-.687 1.249-1.56 2-2.512 2h50c2.209 0 4-4.029 4-9 0-3.215-.752-6.028-1.879-7.62z" fill="#515c3c"/><path d="M53 9a6 6 0 00-6-6h-1v6z" fill="#214369"/><path d="M13 27l-3.2 2.4C6.778 31.666 5 43.223 5 47h8z" fill="#1e3e61"/><path d="M13 47H5v10a4 4 0 004 4h4v-5z" fill="#c5b6a3"/><path d="M17 46h30v10H17z" fill="#f98600"/><path d="M59 47c0-3.777-1.778-15.334-4.8-17.6L51 27v20z" fill="#1e3e61"/><path d="M51 56v5h4a4 4 0 004-4V47h-8z" fill="#c5b6a3"/><path d="M18 3v10a7.997 7.997 0 005 7.413V13h4v8h10v-8h4v7.413A7.998 7.998 0 0046 13V3z" fill="#f98600"/><path d="M18 3h-1a6 6 0 00-6 6h7z" fill="#214369"/><path d="M22 13h6v29h-6zM36 13h6v29h-6z" fill="#c5b6a3"/><path d="M58.305 53.775A8.11 8.11 0 0151.187 58H12.771a8.108 8.108 0 01-7.088-4.17L5 52.6V57a4 4 0 004 4h46a4 4 0 004-4v-4.5z" fill="#b5a796"/><path d="M21 12h8v1h-8zM35 12h8v1h-8z" fill="#de7700"/><path d="M30 39H20a1 1 0 01-1-1v-6a1 1 0 011-1h10a1 1 0 011 1v6a1 1 0 01-1 1zm-9-2h8v-4h-8zM44 39H34a1 1 0 01-1-1v-6a1 1 0 011-1h10a1 1 0 011 1v6a1 1 0 01-1 1zm-9-2h8v-4h-8z" fill="#2e2e2e"/><path d="M6.052 23.316C6.009 23.188 5 20.138 5 18s1.009-5.188 1.052-5.316l1.897.632C7.939 13.345 7 16.188 7 18c0 1.817.939 4.655.948 4.684z" fill="#4a5437"/><path d="M41 46h2v4h-2z" fill="#2e2e2e"/></svg>