<svg height="512pt" viewBox="-87 0 512 512.2" width="512pt" xmlns="http://www.w3.org/2000/svg"><path d="M111.984 78.2c0 10.495-8.507 19-19 19-10.496 0-19-8.505-19-19 0-10.493 8.504-19 19-19 10.493 0 19 8.507 19 19zm0 0" fill="#6d6c6b"/><path d="M103.984 249v-34.2c0-7.6-6.203-13.6-13.601-13.6H69.582c-1.2 0-2.398.198-3.598.6v-26.6h-13.8c-7.801 0-14.2 6.402-14.2 14.198V249c0 7.8 6.399 14.2 14.2 14.2H89.78c7.801 0 14.203-6.4 14.203-14.2zm0 0" fill="#b26e3b"/><path d="M106.984 97.2h-26c-8.203 0-15 6.6-15 15v89.6c1.2-.402 2.399-.6 3.598-.6h20.8c7.602 0 13.602 6.198 13.602 13.6v34.802c0 7.597-6.203 13.597-13.601 13.597h16.8c5.598 0 10.801-3.199 13.399-8.199l1.602-110.8v-32c-.2-8.4-6.801-15-15.2-15zm0 0" fill="#ffae2c"/><path d="M65.984 155.2v46.6c1.2-.402 2.399-.6 3.598-.6h20.8c7.602 0 13.602 6.198 13.602 13.6v34.802c0 7.597-6.203 13.597-13.601 13.597h16.8c5.598 0 10.801-3.199 13.399-8.199l1.402-99.8zm0 0" fill="#fc9322"/><path d="M69.582 201.2h20.8c7.602 0 13.602 6.198 13.602 13.6v34.802c0 7.597-6.203 13.597-13.601 13.597H69.582c-7.598 0-13.598-6.199-13.598-13.597V214.8c0-7.403 6.2-13.602 13.598-13.602zm0 0" fill="#6d6c6b"/><path d="M90.383 201.2H69.582c-7.598 0-13.598 6.198-13.598 13.6v10.4h48v-10.4c0-7.402-6.203-13.6-13.601-13.6zm0 0" fill="#898989"/><path d="M198.383 47c0 23.086-18.715 41.8-41.801 41.8-23.086 0-41.8-18.714-41.8-41.8s18.714-41.8 41.8-41.8 41.8 18.714 41.8 41.8zm0 0" fill="#f9d0b4"/><path d="M115.781 39.2h82c-4.199-22.598-26-37.598-48.597-33.2-17 3-30.403 16.2-33.403 33.2zm0 0" fill="#ea4647"/><path d="M124.184 130.602c-1.403-2.801-2-5.801-1.801-9V122l-2 142-42.399 115-39.8 65.8c1 .2 2 .598 2.8 1.4l29 21.8 42.399-70.2c.601-1 1.199-2.198 1.601-3.402l44.2-120c.8-2 1.199-4.199 1.199-6.398l.8-60zm0 0" fill="#f9d0b4"/><path d="M197.184 473.2h33l-13-85.4c-.2-1.8-.801-3.6-1.602-5.402l-56-119V268c0 2.2-.398 4.398-1.2 6.398l-16.198 44 36.8 78.204 12.2 80c1.199-2.204 3.398-3.403 6-3.403zm0 0" fill="#f9d0b4"/><path d="M260.184 496.2v-.4c-2-13-13.403-22.6-26.602-22.6h-36.398a7.6 7.6 0 0 0-7.602 7.6v18.802a7.596 7.596 0 0 0 7.602 7.597h53.199c5.601 0 10-4.398 10-10 0-.398 0-.597-.2-1zm-182.602 6.198.2-.199c6.202-11.597 3-26.199-7.598-34l-29.2-22c-3.402-2.597-8.203-1.8-10.601 1.403l-11.2 15c-2.601 3.398-1.8 8.199 1.399 10.597l42.402 32c4.399 3.403 10.598 2.602 14-1.8.2-.399.399-.797.598-1zm0 0" fill="#b26e3b"/><path d="M190.984 476.398c1.399-2 3.797-3.199 6.2-3.199h33l-3.801-25-38.801 5.403zM83.781 445.2l-32.797-21.4-12.8 21c1 .2 2 .598 2.8 1.4l29 21.8zm0 0" fill="#e9e9ea"/><path d="M120.184 264 80.383 372.2 116.78 387l41.403-112.602c.8-2 1.199-4.199 1.199-6.398v-2zm0 0" fill="#55acd5"/><path d="M159.582 263.398V268c0 2.2-.398 4.398-1.2 6.398l-16.198 44 31.398 67 36.8-14zm0 0" fill="#3992c4"/><path d="M122.383 121.602V122l-2 142 39.199 1.8.8-58-36.198-77.198c-1.403-2.801-2-5.801-1.801-9zm0 0" fill="#ea4647"/><path d="M180.781 225c-7.597 0-14.597-4.398-17.797-11.398l-39-83.204c-4.601-9.796-.402-21.597 9.399-26 9.8-4.597 21.601-.398 26 9.403l31.8 67.8 68-20.402c10.399-3.199 21.399 2.801 24.399 13.2 3 10.402-2.8 21.402-13.2 24.402l-83.8 25.398c-1.8.602-3.8.801-5.8.801zm0 0" fill="#f9d0b4"/><path d="M69.984 473c-1 0-2.203-.398-3-1l-29-21.8a1.541 1.541 0 0 0-1-.4c-2.601-.6-4.402-3.402-3.8-6 .199-.6.398-1 .597-1.402L73.184 377l42-113.8 2-141v-.598c0-2.801 2.398-4.801 5.199-4.801 2.8.199 5 2.398 4.8 5.199 0 2.398.399 4.602 1.399 6.602l36.2 77.199c.402.597.402 1.398.402 2.199l-.801 60c0 2.8-.602 5.602-1.602 8.2l-44.199 120c-.598 1.402-1.2 2.8-2 4.198l-42.398 70.204C73.383 472 71.78 473 69.984 473zm-25-30 23.399 17.8 39.601-65.402c.399-.796.797-1.597 1.2-2.597l44.199-120c.601-1.602.8-3.2.8-4.801l.801-58.8-28-60.802L125.383 264c0 .602-.2 1.2-.399 1.602l-42.402 115c-.2.199-.2.597-.398.796zm0 0"/><path d="M159.781 114c-4.597-9.8-16.199-14-26-9.398-9.797 4.597-14 16.199-9.398 26l29.601 63.597 34.598-18.8zm0 0" fill="#ea4647"/><path d="m238.383 167.8 19.199-5.8-1.598-6.8c-1.203-5.4-6.601-8.802-12-7.598-5.402 1.199-8.8 6.597-7.601 12zm95 327.2-67-294.602-19.2 5.801 66.801 293.403c1.2 5.398 6.598 8.796 12 7.597 5.399-1.199 8.598-6.8 7.399-12.199zm0 0" fill="#6d6c6b"/><path d="M244.582 320.2h-3.598v-3.598c0-2.801-2.203-5-5-5-2.8 0-5 2.199-5 5v3.597h-3.601c-2.801 0-5 2.2-5 5s2.199 5 5 5h3.601v3.602c0 2.8 2.2 5 5 5 2.797 0 5-2.2 5-5v-3.602h3.598c2.8 0 5-2.199 5-5s-2.2-5-5-5zm0 0" fill="#6dcc6d"/><path d="M66.582 20.2c0-.4-.2-.598-.2-1-.198-.2-.198-.598-.398-.802-.203-.199-.402-.597-.601-.796a5.21 5.21 0 0 0-7 0c-.2.199-.399.398-.602.796-.597.403-.797 1.204-1 1.801a3.425 3.425 0 0 0 0 2c0 .403.203.602.203 1 .2.403.2.602.399.801.199.2.398.602.601.8 2 2 5 2 7 0 .2-.198.399-.402.598-.8.2-.2.402-.602.402-.8.2-.2.2-.598.2-1 .597-.802.597-1.4.398-2zm0 0" fill="#ea4647"/><path d="M214.582 278.2c0-.4-.2-.598-.2-1-.198-.2-.198-.598-.398-.802-.203-.199-.402-.597-.601-.796a5.21 5.21 0 0 0-7 0c-.2.199-.399.398-.602.796-.398.602-.597 1.204-.797 1.801a3.358 3.358 0 0 0 0 2c0 .403.2.602.2 1 .199.403.199.602.398.801s.402.602.602.8c2 2 5 2 7 0a2.76 2.76 0 0 0 .597-.8c.203-.2.403-.602.403-.8.199-.2.199-.598.199-1 .398-.802.398-1.4.199-2zm0 0" fill="#55acd5"/><path d="M32.582 70.2c-8-1.598-14.2-7.802-15.8-15.802 0-.199-.2-.398-.4-.199-.198 0-.198.2-.198.2a20.085 20.085 0 0 1-15.801 15.8c-.2 0-.399.2-.2.403 0 .199.2.199.2.199 8 1.597 14.199 7.8 15.8 15.8 0 .2.2.399.399.2.2 0 .2-.2.2-.2 1.6-8 7.8-14.203 15.8-15.8.2 0 .402-.2.2-.403.202 0 0 0-.2-.199zm0 0" fill="#ffcd29"/><path d="M156.582 93.602c-25.8 0-46.8-21-46.8-46.801S130.781 0 156.581 0s46.8 21 46.8 46.8-21 46.802-46.8 46.802zm0-83.403c-20.2 0-36.8 16.403-36.8 36.801 0 20.2 16.402 36.8 36.8 36.8 20.2 0 36.8-16.402 36.8-36.8s-16.398-36.8-36.8-36.8zM180.781 230c-9.597 0-18.199-5.602-22.199-14.2l-39-83.198c-6-12.204-.8-27 11.402-33 12.2-6 27-.801 33 11.398.2.2.2.398.399.8l30 64 63.8-19.198c13-4 26.801 3.398 30.801 16.398s-3.402 26.8-16.402 30.8h-.2L188.185 229c-2.602.8-5 1-7.403 1zm-38.797-122.398c-8 0-14.601 6.597-14.601 14.597 0 2.2.398 4.2 1.398 6.2l39 83.203c3 6.597 10.602 9.796 17.403 7.796l84.199-25.199c7.8-2 12.398-10.199 10.398-18s-10.199-12.398-18-10.398c-.199 0-.597.199-.797.199l-68 20.398c-2.402.801-5-.398-6-2.597l-31.8-67.602c-2.403-5.199-7.602-8.597-13.2-8.597zm0 0"/><path d="M238.383 172.8c-2.399 0-4.399-1.6-4.801-3.8l-1.8-8.2c-1.798-8 3.202-16.198 11.202-18s16.2 3.2 18 11.2l1.598 6.8c.602 2.598-1 5.2-3.398 5.802l-19.2 5.796c-.601.204-1.203.403-1.601.403zm7.8-20.402c-2.8 0-5 2.204-5 5 0 .403 0 .801.2 1.204l.601 3 9.598-2.801-.598-2.2c-.402-2.601-2.402-4.203-4.8-4.203zM323.582 512.2c-7 0-13-4.802-14.598-11.598l-66.8-293.403c-.602-2.597 1-5.199 3.398-5.8l19.2-5.797c2.6-.801 5.402.796 6.202 3.398v.398l67 294.602c1.797 8-3.203 16.2-11.203 18-1 0-2 .2-3.199.2zm-70.598-302.598 65.797 288.796c.602 2.602 3.203 4.403 6 3.801a5.056 5.056 0 0 0 3.801-6l-65.8-289.398zm-99-10.402c-2 0-3.8-1.2-4.601-2.802l-29.801-63.597c-6-12.2-.8-27 11.402-33 12.2-6 27-.801 33 11.398.2.2.2.403.399.801l28.601 61.398c1.2 2.403.2 5.204-2.203 6.602l-34.597 18.8c-.602.2-1.403.4-2.2.4zm-12-91.598c-8 0-14.601 6.597-14.601 14.597 0 2.2.398 4.2 1.398 6.2l27.602 58.8 25.8-14-27-57c-2.402-5.199-7.601-8.597-13.199-8.597zm0 0"/><path d="M159.383 270.8h-.2l-39.199-1.8c-2.8-.2-4.8-2.398-4.8-5.2v-.198l2-141.602v-.602c.199-2.796 2.398-4.796 5.199-4.796 2.8.199 5 2.398 4.8 5.199 0 2.199.399 4.597 1.399 6.597l36.2 77.204c.402.597.402 1.398.402 2.199l-.801 58c0 2.8-2.2 5-5 5zm-34-11.6 29.199 1.402.8-51.602-28.398-60.602zm0 0"/><path d="M116.781 392c-.597 0-1.199-.2-1.797-.398L78.582 376.8c-2.598-1-3.8-3.801-2.8-6.403l39.8-108.199c.8-2 2.8-3.398 5-3.199l39.2 1.8c2.6.2 4.8 2.4 4.8 5v2c0 2.802-.598 5.598-1.598 8.2l-41.402 112.602c-.8 2-2.8 3.398-4.8 3.398zm-30-22.602 27.203 11 39.797-107.796c.203-.602.403-1.403.602-2l-30.399-1.403zM250.184 512.2h-53.2c-7 0-12.601-5.598-12.601-12.598V480.8c0-7 5.601-12.602 12.601-12.602h36.399c15.8-.199 29.199 11.2 31.601 26.801v.398c.598 4.204-.8 8.403-3.601 11.602-2.602 3.398-6.801 5.2-11.2 5.2zm-53-34c-1.403 0-2.602 1.198-2.602 2.6v18.802c0 1.398 1.2 2.597 2.602 2.597h53.199a4.92 4.92 0 0 0 3.8-1.8c1-1 1.399-2.399 1.2-3.797v-.204c-1.602-10.597-11-18.398-21.602-18.199zm-128.2 34c-3.203 0-6.601-1-9.203-3l-42.398-32c-5.602-4.2-6.602-12.2-2.399-17.598l11.2-15C30.383 439 38.383 438 43.78 442.199l29.203 22c12.598 9.403 16.399 26.602 9 40.403l-.203.199V505c-2.199 3.602-5.797 6.2-9.797 7-1 0-2 .2-3 .2zm-32.601-62.598c-.801 0-1.602.398-2 1l-11.2 15c-.8 1.199-.601 2.796.598 3.597l42.403 32c1.199.801 2.597 1.2 4.199 1 1.398-.199 2.398-1 3.199-2.199 5.2-9.398 2.402-21.398-6.2-27.8l-29.198-22c-.602-.4-1.2-.598-1.801-.598zm0 0"/><path d="M190.984 481.398c-2.402 0-4.601-1.796-5-4.199l-12-79.199-36.402-77.398c-.598-1.204-.598-2.602-.2-3.801l16.2-44c.602-1.602.8-3.2.8-4.801v-4.602c0-2.796 2.4-5 5-5 2 0 3.602 1.204 4.4 2.801l56 119c1 2.2 1.8 4.403 2 6.801l13 85.398c.402 2.801-1.4 5.204-4.2 5.602h-33.8c-.798 0-1.598.398-2.2 1.2-.598 1.402-2 2.198-3.598 2.198zM147.383 318.2l35.8 76.2c.2.402.399.8.399 1.402l11 72.8c.8-.203 1.602-.203 2.402-.203h27.2l-12.2-79.796c-.203-1.403-.601-2.801-1.203-4l-49.398-105zm0 0"/><path d="M173.383 390.398c-2 0-3.801-1.199-4.602-2.796l-31.398-67c-.602-1.204-.602-2.602-.2-3.801l16.2-44c.601-1.602.8-3.2.8-4.801v-4.602c0-2.796 2.399-5 5-5 2 0 3.598 1.204 4.399 2.801l50.8 108c1.2 2.602 0 5.403-2.398 6.602-.203 0-.203.199-.402.199l-36.8 14c0 .2-.598.398-1.4.398zm-26-72.199L175.984 379l27.399-10.398-41.801-89zm43.601 163.199c-2.402 0-4.601-1.796-5-4.199l-3.402-22.8c-.398-2.797 1.402-5.2 4.2-5.598l38.8-5.403c2.8-.398 5.2 1.403 5.602 4.204l3.8 25c.399 2.796-1.402 5.199-4.203 5.597h-33.797c-.8 0-1.601.403-2.203 1.2-.797 1.203-2.199 2-3.797 2zm2.2-23.597 1.597 10.597c.801-.199 1.602-.199 2.403-.199h27.199l-2.2-14.398zM69.984 473c-1 0-2.203-.398-3-1l-29-21.8a1.541 1.541 0 0 0-1-.4c-2.601-.6-4.402-3.402-3.8-6 .199-.6.398-1 .597-1.402l12.801-21c1.402-2.398 4.602-3.199 6.8-1.597h.2l32.8 21.398c2.2 1.403 3 4.403 1.602 6.801l-13.8 22.8c-.801 1.2-2.403 2.2-4.2 2.2zm-25-30 23.399 17.8L76.78 447l-24.398-16zm59-213c-2.8 0-5-2.2-5-5 0-1.602.797-3 2-4a331.774 331.774 0 0 0 43.598-41.8c1.8-2.2 5-2.4 7-.598 2.2 1.796 2.402 5 .602 7a331.7 331.7 0 0 1-45.2 43.398c-.8.8-1.8 1-3 1zm-10-69.8c-2.8 0-5-2.2-5-5v-58c0-2.802 2.2-5 5-5 2.797 0 5 2.198 5 5v58c0 2.8-2.402 5-5 5zm0 0"/><path d="M92.984 102.2c-13.203 0-24-10.802-24-24s10.797-24 24-24c13.2 0 24 10.8 24 24s-10.8 24-24 24zm0-38c-7.8 0-14 6.198-14 14s6.2 14 14 14c7.797 0 14-6.2 14-14s-6.203-14-14-14zm0 0"/><path d="M65.984 160.2c-2 0-3.8-1.2-4.601-3l-14-30.598c-11.801-25.801-.399-56 25.199-67.801 6.602-3 14-4.602 21.402-4.602 2.797 0 5 2.2 5 5s-2.203 5-5 5c-22.8 0-41.203 18.403-41.203 41.2 0 6 1.203 11.8 3.801 17.203l14 30.597c1.2 2.602 0 5.403-2.398 6.602-.801.199-1.403.398-2.2.398zm153-116h-103c-2.8 0-5-2.2-5-5s2.2-5 5-5h103c2.797 0 5 2.198 5 5s-2.203 5-5 5zm-129.203 224H52.184c-10.602 0-19.2-8.598-19.2-19.2v-59.602c0-10.597 8.598-19.199 19.2-19.199h13.8c2.797 0 5 2.2 5 5v21h19.399c10.199 0 18.601 8.403 18.601 18.602V249c0 10.602-8.601 19.2-19.203 19.2zm-37.597-88c-5 0-9.2 4.198-9.2 9.198V249c0 5 4.2 9.2 9.2 9.2H89.78c5 0 9.203-4.2 9.203-9.2v-34.2c0-4.8-3.8-8.6-8.601-8.6h-20.8c-.8 0-1.598.198-2.398.402-2.602.796-5.403-.801-6.2-3.403-.203-.398-.203-.8-.203-1.398v-21.602zm0 0"/><path d="M106.984 268.2h-16.8c-2.801 0-5-2.2-5-5s2.199-5 5-5c4.8 0 8.597-3.802 8.597-8.598V214.8c0-4.801-3.797-8.602-8.597-8.602H69.582c-.8 0-1.598.2-2.398.403-2.602.796-5.403-.801-6.2-3.403-.203-.398-.203-.8-.203-1.398v-89.602c0-11 9-19.8 20-20h26.203c11 0 19.797 9 20 20v32L125.383 255c0 .8-.2 1.602-.602 2.2-3.398 6.8-10.199 11-17.797 11zm-.203-10h.203c3.399 0 6.598-1.802 8.399-4.598l1.601-109.403v-32c0-5.398-4.402-10-10-10h-26c-5.402 0-10 4.403-10 10v84h19.399c10.199 0 18.601 8.403 18.601 18.602v34.8c0 3-.8 6-2.203 8.598zm13.602-3.2"/><path d="M106.984 268.2h-16.8c-2.801 0-5-2.2-5-5s2.199-5 5-5c4.8 0 8.597-3.802 8.597-8.598V214.8c0-4.801-3.797-8.602-8.597-8.602H69.582c-.8 0-1.598.2-2.398.403-2.602.796-5.403-.801-6.2-3.403-.203-.398-.203-.8-.203-1.398v-46.602c0-2.8 2.203-5 5-5h55.801c2.8 0 5 2.2 5 5L125.184 255c0 .8-.2 1.602-.602 2.2-3.2 6.8-10 11-17.598 11zm-.203-10h.203c3.399 0 6.598-1.802 8.399-4.598l1.398-93.403H70.984v36h19.399c10.199 0 18.601 8.403 18.601 18.602v34.8c0 3-.8 6-2.203 8.598zm0 0"/><path d="M90.383 268.2H69.582c-10.2 0-18.598-8.4-18.598-18.598V214.8c0-10.2 8.399-18.602 18.598-18.602h20.8c10.2 0 18.602 8.403 18.602 18.602v34.8c0 10.2-8.402 18.598-18.601 18.598zm-20.801-62c-4.8 0-8.598 3.8-8.598 8.6v34.802c0 4.796 3.797 8.597 8.598 8.597h20.8c4.802 0 8.602-3.8 8.602-8.597V214.8c0-4.801-3.8-8.602-8.601-8.602zm0 0"/><path d="M103.984 230.2h-48c-2.8 0-5-2.2-5-5v-10.4c0-10.198 8.399-18.6 18.598-18.6h20.8c10.2 0 18.602 8.402 18.602 18.6v10.4c0 2.8-2.203 5-5 5zm-43-10h38v-5.4c0-4.8-3.8-8.6-8.601-8.6H69.582c-4.8 0-8.598 3.8-8.598 8.6zm0 0"/></svg>